<svg width="25" height="25" viewBox="0 0 25 25" fill="none" xmlns="http://www.w3.org/2000/svg">
<g clip-path="url(#clip0_4062_36866)">
<path d="M24.2407 12.3791C24.2407 11.5704 24.1624 10.7356 24.032 9.953H12.7363V14.5704H19.2059C18.945 16.0574 18.0842 17.3617 16.8059 18.1965L20.6668 21.1965C22.9363 19.0834 24.2407 16.0052 24.2407 12.3791Z" fill="#4280EF"/>
<path d="M12.7347 24.0661C15.9695 24.0661 18.6825 22.9965 20.6651 21.1704L16.8043 18.1965C15.7347 18.9269 14.3521 19.3443 12.7347 19.3443C9.60428 19.3443 6.9695 17.2313 6.00428 14.4139L2.03906 17.4661C4.07385 21.5095 8.19558 24.0661 12.7347 24.0661Z" fill="#34A353"/>
<path d="M6.00453 14.3878C5.50888 12.9008 5.50888 11.2834 6.00453 9.79646L2.03932 6.7182C0.343665 10.1095 0.343665 14.1008 2.03932 17.466L6.00453 14.3878Z" fill="#F6B704"/>
<path d="M12.7347 4.86602C14.4304 4.83993 16.0999 5.49211 17.326 6.66602L20.7434 3.22254C18.5782 1.18776 15.7086 0.0921052 12.7347 0.118192C8.19558 0.118192 4.07385 2.67471 2.03906 6.71819L6.00428 9.79646C6.9695 6.95298 9.60428 4.86602 12.7347 4.86602Z" fill="#E54335"/>
</g>
<defs>
<clipPath id="clip0_4062_36866">
<rect width="23.4783" height="24" fill="white" transform="translate(0.761719 0.0921631)"/>
</clipPath>
</defs>
</svg>
