<svg width="37" height="25" viewBox="0 0 37 25" fill="none" xmlns="http://www.w3.org/2000/svg">
<g clip-path="url(#clip0_4083_2385)">
<path d="M4.53905 15.8306C4.53905 17.2025 4.84024 18.2558 5.23378 18.893C5.74985 19.7277 6.5194 20.0812 7.3041 20.0812C8.31617 20.0812 9.24206 19.83 11.0262 17.3624C12.4557 15.3845 14.14 12.6081 15.2732 10.8676L17.1925 7.91886C18.5257 5.871 20.0687 3.59451 21.8381 2.05135C23.2822 0.791843 24.8404 0.0921936 26.4084 0.0921936C29.0411 0.0921936 31.5487 1.61781 33.468 4.47914C35.5684 7.61275 36.588 11.5598 36.588 15.6331C36.588 18.0546 36.1108 19.8338 35.2986 21.2396C34.5139 22.599 32.9845 23.9572 30.4119 23.9572V20.0812C32.6147 20.0812 33.1644 18.0571 33.1644 15.7406C33.1644 12.4396 32.3948 8.77598 30.6993 6.15844C29.496 4.3016 27.9367 3.16714 26.2212 3.16714C24.3657 3.16714 22.8725 4.56644 21.1945 7.06188C20.3024 8.38749 19.3865 10.0031 18.3583 11.8259L17.2262 13.8314C14.9521 17.8634 14.3761 18.7817 13.2391 20.2974C11.2461 22.9514 9.54452 23.9572 7.3041 23.9572C4.64655 23.9572 2.96585 22.8063 1.92515 21.0721C1.07547 19.6589 0.658203 17.8048 0.658203 15.6919L4.53905 15.8306Z" fill="#0081FB"/>
<path d="M3.72852 4.75275C5.50788 2.01029 8.07546 0.0922546 11.0204 0.0922546C12.7261 0.0922546 14.4216 0.597097 16.1921 2.04271C18.1287 3.6232 20.1928 6.22587 22.768 10.5154L23.6915 12.0546C25.9204 15.7682 27.1886 17.6785 27.9308 18.5796C28.8854 19.7365 29.5539 20.0813 30.4223 20.0813C32.6251 20.0813 33.1748 18.0572 33.1748 15.7407L36.5984 15.6332C36.5984 18.0546 36.1212 19.8339 35.309 21.2396C34.5243 22.5991 32.9949 23.9572 30.4223 23.9572C28.823 23.9572 27.4061 23.6099 25.8393 22.1317C24.6348 20.9972 23.2266 18.9818 22.1433 17.17L18.9208 11.7873C17.3041 9.08594 15.8209 7.0719 14.9626 6.15962C14.0394 5.17885 12.8523 3.99429 10.9581 3.99429C9.42508 3.99429 8.12304 5.07022 7.0335 6.71569L3.72852 4.75275Z" fill="url(#paint0_linear_4083_2385)"/>
<path d="M10.9476 3.99423C9.41455 3.99423 8.11252 5.07016 7.02298 6.71563C5.48248 9.04097 4.53905 12.5044 4.53905 15.8306C4.53905 17.2025 4.84024 18.2558 5.23378 18.893L1.92515 21.0721C1.07547 19.6589 0.658203 17.8048 0.658203 15.6919C0.658203 11.8497 1.7128 7.84518 3.71813 4.75269C5.4975 2.01023 8.06508 0.0921936 11.0101 0.0921936L10.9476 3.99423Z" fill="url(#paint1_linear_4083_2385)"/>
</g>
<defs>
<linearGradient id="paint0_linear_4083_2385" x1="459.897" y1="1334.96" x2="2930.91" y2="1459.76" gradientUnits="userSpaceOnUse">
<stop stop-color="#0064E1"/>
<stop offset="0.4" stop-color="#0064E1"/>
<stop offset="0.83" stop-color="#0073EE"/>
<stop offset="1" stop-color="#0082FB"/>
</linearGradient>
<linearGradient id="paint1_linear_4083_2385" x1="562.92" y1="1736.85" x2="562.92" y2="824.75" gradientUnits="userSpaceOnUse">
<stop stop-color="#0082FB"/>
<stop offset="1" stop-color="#0064E0"/>
</linearGradient>
<clipPath id="clip0_4083_2385">
<rect width="35.9298" height="24" fill="white" transform="translate(0.658203 0.0921631)"/>
</clipPath>
</defs>
</svg>
